<svg xmlns="http://www.w3.org/2000/svg" width="164" height="230" fill="none" viewBox="0 0 164 230">
  <path fill="#784931" fill-rule="evenodd" d="M66.925 36.805c-3.46-2.264-6.302-5.35-7.266-9.304-2.78-11.391 14.482-12.6 19.507-7.659 5.026 4.942 9.266 19.373 5.452 21.308-1.522.771-5.357.568-9.595-.677L82.12 55.03l-13.267 2.96-1.928-21.185z" clip-rule="evenodd"/>
  <path fill="#191847" fill-rule="evenodd" d="M72.411 15.173c-2.019-.1-4.766.335-5.86.713a8.73 8.73 0 00-.75-4.725c-.676-1.46-1.807-2.576-2.903-3.765-.505-.549-1.05-1.085-1.723-1.439a4.655 4.655 0 00-2.216-.516 5.57 5.57 0 00-2.208.501c-.301.136-.546.337-.837.484-.298.151-.513 0-.807-.134-.706-.324-1.603-.359-2.341-.276a5.72 5.72 0 00-2.31.81c-.668.407-1.26.954-1.62 1.637-.161.305-.289.638-.331.984-.017.142-.003.22-.127.299-.114.073-.264.108-.383.18a4.64 4.64 0 00-2.186 3.17c-.132.766.084 2.011.556 3.355.472 1.344 2.907 4.576 4.55 5.583 1.465.899 3.325 1.289 4.994 1.265-.692 1.335-.95 2.865-1.021 4.377a18.04 18.04 0 00.455 4.931c.36 1.553.858 3.168 1.715 4.573.802 1.314 1.936 2.283 3.456 2.715.695.199 1.41.304 2.122.386.701.082 1.402.157 2.103.133 1.325-.046 2.752-.415 3.424-1.555.242-.41.492-.915.618-1.378.045-.166.07-.274-.086-.391-.186-.14-.442-.223-.654-.318-1.21-.54-2.132-1.42-2.664-2.593-.54-1.19-.683-2.853.436-3.681 1.38-1.022 3.37-.663 5.005-.278-.018-2.098.657-4.144 2.306-5.484 1.824-1.482 4.24-2.157 6.168-3.511.503-.353 1.006-.739 1.285-1.288.116-.23.245-.522.237-.789-.012-.35-.328-.574-.586-.79-1.369-1.147-5.798-3.084-7.817-3.185zM70.93 101.376l21.723 68.117 15.85 50.206h11.561l-16.843-118.323H70.929z" clip-rule="evenodd"/>
  <path fill="#2F3676" fill-rule="evenodd" d="M65.12 101.376c-.503 35.109-2.217 54.258-2.744 57.447-.528 3.19-8.505 23.482-23.932 60.876H50.42c19.64-35.873 30.603-56.165 32.89-60.876 2.287-4.71 9.345-23.859 19.976-57.447H65.119z" clip-rule="evenodd"/>
  <path fill="#191847" fill-rule="evenodd" d="M37.373 229.42l.6-11.287h12.583c5.967 3.762 13.756 6.808 23.37 9.137v2.15h-22.77l-7.79-1.075v1.075h-5.992zM106.881 229.42l.6-11.287h12.583c5.967 3.762 13.756 6.808 23.369 9.137v2.15h-22.77l-7.789-1.075v1.075h-5.993z" clip-rule="evenodd"/>
  <g>
    <path fill="#B28B67" fill-rule="evenodd" d="M119.172 87.046l20.614 11.288c5.298.858 9.794 2.098 13.488 3.72.903.618 2.07 1.925-1.333 1.963-3.402.038-6.975.219-7.299 1.322-.323 1.102 1.885 2.206 1.136 3.719-.5 1.009-3.78-1.147-9.839-6.466l-19.678-5.64 2.911-9.906zM37.774 92.92l10.676-.142c-6.445 24.085-9.934 36.834-10.468 38.248-1.2 3.182 1.993 7.939 3.389 10.501-3.973 1.752-3.893-4.478-8.899-2.184-4.569 2.094-7.925 5.801-13.51 2.814-.687-.367-1.497-1.781.2-2.927 4.231-2.855 10.279-7.828 11.043-9.443 1.04-2.203 3.564-14.492 7.569-36.867z" clip-rule="evenodd"/>
    <path fill="#C5CFD6" fill-rule="evenodd" d="M74.216 48.415l5.93-2.878c12.771 18.6 29.631 35.93 54.465 48.999l-3.521 9.242c-20.982-7.475-40.479-12.807-50.945-27.136-3.513-4.809-4.83-22.018-5.93-28.227z" clip-rule="evenodd"/>
    <path fill="#323337" fill-rule="evenodd" d="M63.708 107.805c18.528-.904 32.817-3.012 42.868-6.325 1.245-.41 1.028-2.434.144-3.698-13.77-19.69-24.042-37.129-27.128-51.761-1.543 1.048-4.513 1.609-8.91 1.683-8.32 16.776-9.956 34.858-6.974 60.101z" clip-rule="evenodd"/>
    <path fill="#DDE3E9" fill-rule="evenodd" d="M66.636 46.976l4.777-.706c2.383 5.876 23.111 87.148 39.574 112.303l-58.598 8.66c-3.89-24.698-.067-55.622 4.897-81.76-7.38 8.911-12.498 22.919-15.354 42.023l-11.524-.979c1.325-33.677 13.08-60.022 35.264-79.037l.09-.375.423-.062.41-.345.04.278z" clip-rule="evenodd"/>
  </g>
</svg>
