<svg xmlns="http://www.w3.org/2000/svg" width="153" height="229" fill="none" viewBox="0 0 153 229">
  <path fill="#B28B67" fill-rule="evenodd" d="M77.235 21.15c2.954-3.11 4.953-6.922 4.62-11.192C80.891-2.347 61.794.36 58.08 6.57c-3.715 6.21-3.273 21.964 1.527 23.074 1.915.443 5.994-.642 10.145-2.886l-2.606 16.534h15.384l-5.296-22.143z" clip-rule="evenodd"/>
  <path fill="#191847" fill-rule="evenodd" d="M68.983 11.317c-.589 7.358-2.146 11.037-4.673 11.037-3.79 0-7.006-2.159-8.669-2.159-1.212 0-.942 1.361-.138 2.37.663.833 3.892 1.635 3.892 2.925 0 1.291-2.551.293-2.551 1.058 0 1.266-.449 3.646 2.001 3.646 2.48 0 9.588-.81 10.806-4.11.786-2.13 1.294-6.544 1.525-13.242.15-.016.303-.024.458-.024 2.124 0 3.846 1.545 3.846 3.45 0 .967-.444 1.841-1.158 2.468a53.397 53.397 0 003.03 3.518c4.293-2.31 7.48-9.074 3.282-15.572-1.16-3.183-3.787-4.883-6.89-5.673-2.512-.943-5.12-1.049-7.323-.484-4.316.332-8.17 1.513-9.263 2.214 0 3.666.792 4.753 7.555 4.657 1.662.788 2.94 2.143 4.27 3.92zM87.66 91.015l-23.24 73.153-16.957 53.918H35.096l18.019-127.07H87.66z" clip-rule="evenodd"/>
  <path fill="#2F3676" fill-rule="evenodd" d="M93.875 91.015c.537 37.704 2.37 58.269 2.935 61.695.564 3.425 9.098 25.217 25.602 65.376H109.6c-21.01-38.525-32.738-60.318-35.185-65.376-2.447-5.059-9.998-25.624-21.37-61.695h40.83z" clip-rule="evenodd"/>
  <path fill="#191847" fill-rule="evenodd" d="M123.557 228.436l-.641-12.075h-13.462c-6.383 4.025-14.716 7.283-25 9.775v2.3h24.359l8.334-1.15v1.15h6.41zM49.199 228.436l-.641-12.075H35.096c-6.383 4.025-14.716 7.283-25 9.775v2.3h24.36l8.332-1.15v1.15h6.41z" clip-rule="evenodd"/>
  <g>
    <path fill="#B28B67" fill-rule="evenodd" d="M33.584 81.591l-19.35 14.715c-5.428 1.686-9.92 3.642-13.477 5.868-.82.771-1.767 2.289 1.85 1.81 3.616-.479 7.445-.837 8.033.244.588 1.081-1.508 2.55-.377 3.987.754.959 3.753-1.751 8.996-8.128l19.614-8.78-5.289-9.716zm87.622-6.367l-11.353 1.479c12.187 23.718 18.72 36.261 19.601 37.63 1.98 3.08-.349 8.444-1.26 11.284 4.602 1.192 3.132-5.185 8.951-3.594 5.31 1.451 9.693 4.743 14.953.829.646-.481 1.191-2.054-.864-2.971-5.121-2.284-12.639-6.463-13.808-8.003-1.594-2.101-7-14.319-16.22-36.654z" clip-rule="evenodd"/>
    <path fill="#C5CFD6" fill-rule="evenodd" d="M73.753 33.708l-7.035-2.087c-9.544 21.384-23.776 42.074-47.556 59.55l5.88 9.1c20.9-11.043 40.683-19.621 48.71-36.19 2.695-5.562.22-23.723 0-30.373z" clip-rule="evenodd"/>
    <path fill="#323337" fill-rule="evenodd" d="M97.916 93.89c-20.153 1.917-36.015 1.917-47.587 0-1.434-.237-1.66-2.39-.995-3.852 10.354-22.755 17.454-42.611 17.454-58.417 1.9.86 5.225.988 9.974.387C89.528 48.296 95.395 66.985 97.916 93.89z" clip-rule="evenodd"/>
    <path fill="#DDE3E9" fill-rule="evenodd" d="M79.936 30.642h-5.32c-1.239 6.535-5.145 95.023-17.206 123.97h65.259c-1.415-26.518-12.575-58.372-23.88-85.027 9.996 8.206 18.709 22.11 26.139 41.711l12.223-2.814c-9.088-35.13-27.775-60.95-56.06-77.46-.06-.128-.121-.254-.182-.38h-.47l-.522-.298.019.298z" clip-rule="evenodd"/>
  </g>
</svg>
