<svg xmlns="http://www.w3.org/2000/svg" width="387" height="82" fill="none" viewBox="0 0 387 82">
  <circle cx="41" cy="41" r="41" fill="#C91414"/>
  <path stroke="#fff" stroke-width="15" d="M13.12 40.788h27.675m27.675 0H40.795m0 0V13.53m0 27.258V68.88"/>
  <path fill="#000" d="M118.216 30.572V34h-11.353v-3.428h11.353zm-9.917-17.9V34h-4.395V12.672h4.395zm8.437 8.686v3.34h-9.873v-3.34h9.873zm1.465-8.686v3.442h-11.338v-3.442h11.338zm9.639 28.33V22.164c0-.83.2-1.562.6-2.197a4.132 4.132 0 011.612-1.48 4.667 4.667 0 012.241-.542c1.367 0 2.549.23 3.545.689 1.006.449 1.836 1.055 2.49 1.816a7.377 7.377 0 011.45 2.534c.323.928.484 1.875.484 2.842a9.55 9.55 0 01-.528 3.15c-.351 1.005-.922 1.914-1.713 2.724-.782.801-1.827 1.436-3.135 1.905-1.309.468-2.92.703-4.834.703-1.944 0-3.579-.245-4.907-.733-1.329-.488-2.393-1.152-3.194-1.992a7.78 7.78 0 01-1.743-2.886 10.886 10.886 0 01-.527-3.383c0-1.055.141-2.046.424-2.974a9.402 9.402 0 011.172-2.505 8.345 8.345 0 011.685-1.89l2.915 2.212a7 7 0 00-1.084 1.568 8.233 8.233 0 00-.645 1.772 9.19 9.19 0 00-.249 1.817c0 .8.098 1.547.293 2.24.205.684.537 1.285.996 1.802.469.518 1.099.923 1.89 1.216.791.293 1.782.44 2.974.44 1.533 0 2.734-.24 3.603-.718.869-.479 1.485-1.113 1.846-1.904a6.1 6.1 0 00.542-2.564 7.666 7.666 0 00-.234-1.83 4.365 4.365 0 00-.63-1.451 2.992 2.992 0 00-.996-.952c-.391-.235-.845-.352-1.363-.352-.341 0-.556.093-.644.279a1.26 1.26 0 00-.117.512v18.97h-4.219zm19.219-19.468V34h-4.219V18.15h3.94l.279 3.384zm-.806 4.014l-.923.03c0-1.124.142-2.154.425-3.092.293-.937.708-1.753 1.245-2.446a5.76 5.76 0 011.963-1.611c.762-.381 1.611-.572 2.549-.572.761 0 1.45.108 2.065.323a3.865 3.865 0 011.611 1.01c.45.47.796 1.09 1.041 1.86.244.762.366 1.7.366 2.813v16.23h-4.234v-16.23c0-.478-.053-.888-.161-1.23a2 2 0 00-.483-.835 1.737 1.737 0 00-.747-.483 2.926 2.926 0 00-1.011-.162c-.615 0-1.157.113-1.626.337a3.269 3.269 0 00-1.157.938c-.303.4-.532.869-.689 1.406a6.018 6.018 0 00-.234 1.714zm23.892-7.398h4.233V34h-3.94l-.293-3.662V18.15zm.527 8.482l1.714-.03c0 1.114-.113 2.14-.337 3.077-.215.937-.547 1.753-.996 2.446a4.705 4.705 0 01-1.67 1.611c-.674.381-1.46.572-2.359.572a5.247 5.247 0 01-1.919-.337 3.953 3.953 0 01-1.494-1.055c-.42-.488-.766-1.108-1.04-1.86l-.381-3.809h2.271c0 .762.063 1.387.19 1.875s.308.87.542 1.143c.235.263.513.449.835.556a3.89 3.89 0 001.099.147c.674 0 1.24-.108 1.699-.323.459-.214.82-.517 1.084-.908.274-.39.469-.85.586-1.377a7.982 7.982 0 00.176-1.728zm-10.43-8.482h4.219v21.944h-4.219V18.15zm24.185 7.237h3.603v1.89h-2.71c-.595 0-1.118.063-1.567.19-.449.127-.796.337-1.04.63-.234.283-.352.659-.352 1.128 0 .253.059.502.176.747.117.234.298.444.542.63.254.175.562.322.923.439a4.59 4.59 0 001.274.161c.655 0 1.202-.088 1.641-.264.439-.175.771-.405.996-.688.225-.293.337-.605.337-.938h4.219c0 .86-.2 1.607-.601 2.242a4.944 4.944 0 01-1.597 1.552c-.664.4-1.411.699-2.241.894-.83.195-1.67.293-2.519.293a12.46 12.46 0 01-2.901-.322c-.898-.215-1.684-.528-2.358-.938-.664-.41-1.182-.908-1.553-1.494-.371-.596-.556-1.27-.556-2.021 0-.665.141-1.25.424-1.758a3.65 3.65 0 011.231-1.304c.547-.351 1.211-.615 1.992-.791.781-.185 1.66-.278 2.637-.278zm3.603 1.054h-3.603c-.889 0-1.699-.102-2.432-.307-.732-.205-1.367-.489-1.904-.85-.537-.37-.952-.796-1.245-1.274a2.937 2.937 0 01-.425-1.524c0-.752.171-1.41.513-1.977.341-.576.825-1.06 1.45-1.45.635-.391 1.387-.684 2.256-.88a12.627 12.627 0 012.871-.307c.918 0 1.782.112 2.593.337a6.89 6.89 0 012.138.952c.615.41 1.099.913 1.45 1.509.352.586.528 1.26.528 2.021h-4.219a1.31 1.31 0 00-.352-.922c-.234-.264-.556-.464-.966-.601a4.391 4.391 0 00-1.392-.205c-.625 0-1.133.093-1.523.278-.391.176-.679.405-.865.689a1.578 1.578 0 00-.263.864c0 .264.058.503.175.718.118.205.284.386.498.542.225.146.503.263.835.351.342.078.733.117 1.172.117h2.71v1.92zm7.09 13.653V25.519c0-1.133.166-2.168.498-3.106a6.885 6.885 0 011.436-2.417 6.478 6.478 0 012.285-1.582c.889-.371 1.899-.557 3.032-.557 1.143 0 2.149.206 3.018.616.869.41 1.596.986 2.182 1.728.596.742 1.04 1.621 1.333 2.637.303 1.015.454 2.129.454 3.34v.307c0 1.143-.131 2.193-.395 3.15-.264.947-.659 1.772-1.187 2.475a5.292 5.292 0 01-1.919 1.626c-.761.381-1.635.572-2.622.572-.947 0-1.762-.19-2.446-.572a5.069 5.069 0 01-1.728-1.596c-.459-.684-.831-1.485-1.114-2.403a19.062 19.062 0 01-.644-3.017c.039.02.171.083.395.19.235.098.459.195.674.293.225.098.347.147.366.147.049.722.191 1.362.425 1.919.244.546.61.971 1.099 1.274.488.303 1.113.454 1.875.454.547 0 1.01-.112 1.391-.337.391-.224.703-.537.938-.937.234-.41.405-.889.513-1.436a9.399 9.399 0 00.161-1.802v-.307c0-.684-.054-1.328-.161-1.934a5.71 5.71 0 00-.513-1.611 2.832 2.832 0 00-.938-1.084c-.381-.264-.844-.396-1.391-.396-.498 0-.928.127-1.289.381-.352.254-.64.6-.865 1.04-.214.44-.376.947-.483 1.524a9.614 9.614 0 00-.161 1.787v14.209h-4.219zm22.969-14.707h3.603v1.89h-2.71c-.595 0-1.118.063-1.567.19-.449.127-.796.337-1.04.63-.234.283-.352.659-.352 1.128 0 .253.059.502.176.747.117.234.298.444.542.63.254.175.562.322.923.439a4.59 4.59 0 001.274.161c.655 0 1.202-.088 1.641-.264.44-.175.772-.405.996-.688.225-.293.337-.605.337-.938h4.219c0 .86-.2 1.607-.601 2.242a4.95 4.95 0 01-1.596 1.552c-.664.4-1.412.699-2.242.894-.83.195-1.67.293-2.519.293a12.46 12.46 0 01-2.901-.322c-.898-.215-1.684-.528-2.358-.938-.664-.41-1.182-.908-1.553-1.494-.371-.596-.556-1.27-.556-2.021 0-.665.141-1.25.424-1.758a3.65 3.65 0 011.231-1.304c.547-.351 1.211-.615 1.992-.791.781-.185 1.66-.278 2.637-.278zm3.603 1.054h-3.603c-.889 0-1.699-.102-2.432-.307-.732-.205-1.367-.489-1.904-.85-.537-.37-.952-.796-1.245-1.274a2.946 2.946 0 01-.425-1.524c0-.752.171-1.41.513-1.977.342-.576.825-1.06 1.45-1.45.635-.391 1.387-.684 2.256-.88a12.627 12.627 0 012.871-.307c.918 0 1.782.112 2.593.337a6.89 6.89 0 012.138.952c.616.41 1.099.913 1.45 1.509.352.586.528 1.26.528 2.021h-4.219c0-.36-.117-.668-.351-.922-.235-.264-.557-.464-.967-.601a4.387 4.387 0 00-1.392-.205c-.625 0-1.133.093-1.523.278-.391.176-.679.405-.865.689a1.578 1.578 0 00-.263.864c0 .264.058.503.176.718.117.205.283.386.498.542.224.146.503.263.835.351.341.078.732.117 1.171.117h2.71v1.92zm7.105-8.29h4.219v9.77c0 .576.044 1.064.131 1.465.098.4.235.718.411.952.175.234.371.405.586.513.224.107.463.16.717.16a2.27 2.27 0 001.407-.453c.41-.303.752-.708 1.025-1.216a6.755 6.755 0 00.615-1.714c.147-.625.22-1.26.22-1.904a19.481 19.481 0 00-.44-3.853c-.263-1.27-.61-2.51-1.04-3.72h4.029c.293.595.566 1.279.82 2.05.254.762.459 1.602.615 2.52.157.918.235 1.919.235 3.003 0 1.191-.142 2.31-.425 3.354a8.028 8.028 0 01-1.318 2.74 6.117 6.117 0 01-2.286 1.83c-.918.44-2.021.66-3.31.66-.938 0-1.787-.127-2.549-.381a5.208 5.208 0 01-1.963-1.157c-.547-.528-.967-1.197-1.26-2.007-.293-.81-.439-1.768-.439-2.871V18.15zm5.054-2.447l1.098-5.024h3.838l-2.417 5.024h-2.519zm10.62 10.532v-.307c0-1.162.166-2.232.498-3.208.332-.987.815-1.841 1.45-2.564a6.498 6.498 0 012.344-1.684c.927-.41 1.992-.616 3.193-.616s2.271.206 3.208.616c.938.4 1.724.962 2.358 1.684a7.292 7.292 0 011.465 2.564c.332.976.498 2.046.498 3.208v.307c0 1.153-.166 2.222-.498 3.208a7.468 7.468 0 01-1.465 2.564 6.495 6.495 0 01-2.343 1.684c-.928.4-1.992.601-3.194.601-1.201 0-2.27-.2-3.208-.6a6.639 6.639 0 01-2.358-1.685 7.6 7.6 0 01-1.45-2.564c-.332-.986-.498-2.055-.498-3.208zm4.218-.307v.307c0 .664.059 1.284.176 1.86.117.577.303 1.085.557 1.524.264.43.605.767 1.025 1.01.42.245.933.367 1.538.367.586 0 1.089-.122 1.509-.366.42-.244.757-.581 1.011-1.01.254-.44.439-.948.557-1.524.126-.577.19-1.197.19-1.86v-.308c0-.645-.064-1.25-.19-1.817a4.806 4.806 0 00-.572-1.523c-.254-.45-.591-.8-1.011-1.055-.419-.254-.927-.38-1.523-.38-.596 0-1.103.126-1.523.38a2.992 2.992 0 00-1.011 1.055c-.254.44-.44.947-.557 1.523a8.97 8.97 0 00-.176 1.817zm18.545 4.995l3.516-12.774h4.409L269.812 34h-2.666l.088-3.076zm-2.417-12.774l3.531 12.789.073 3.061h-2.681l-5.346-15.85h4.423zm25.752 0v3.267h-14.37V18.15h14.37zm-9.492 0h4.234v11.09c0 .439.053.785.161 1.04.107.253.263.434.468.541.206.098.455.147.748.147.332 0 .595-.025.791-.073.195-.05.41-.113.644-.19l.425 3.105a5.459 5.459 0 01-1.319.38c-.41.069-.874.103-1.391.103-.986 0-1.836-.18-2.549-.542-.713-.371-1.26-.933-1.641-1.685-.38-.752-.571-1.709-.571-2.87V18.15zm10.855 8.335v-.307c0-1.211.131-2.325.395-3.34.274-1.016.669-1.895 1.187-2.637a5.577 5.577 0 011.948-1.728c.771-.41 1.66-.616 2.666-.616.693 0 1.313.132 1.86.396.557.254 1.04.625 1.45 1.113.42.489.777 1.07 1.07 1.743.293.664.537 1.407.732 2.227.196.81.347 1.68.454 2.607v.645a18.53 18.53 0 01-.6 3.061c-.274.938-.63 1.758-1.07 2.461-.439.694-.986 1.23-1.64 1.612-.645.38-1.406.571-2.285.571-.996 0-1.88-.19-2.652-.571a5.488 5.488 0 01-1.933-1.612c-.528-.703-.923-1.528-1.187-2.475-.264-.957-.395-2.007-.395-3.15zm4.233-.307v.307c0 .655.049 1.255.147 1.802.107.537.278 1.01.512 1.421.235.41.542.728.923.952.381.225.85.337 1.406.337.547 0 1.011-.102 1.392-.308.391-.205.713-.488.967-.85.254-.37.454-.805.6-1.303.147-.508.254-1.07.323-1.684v-1.084a11.106 11.106 0 00-.308-1.846 4.75 4.75 0 00-.601-1.465 2.736 2.736 0 00-.966-.952c-.381-.235-.84-.352-1.377-.352-.547 0-1.016.132-1.407.396-.38.264-.693.625-.937 1.084-.235.459-.405.996-.513 1.611-.107.606-.161 1.25-.161 1.934zm6.108-8.028h3.663v10.782c0 .38.024.698.073.952.049.254.117.459.205.615.098.156.21.269.337.337.137.059.288.088.454.088.078 0 .141-.005.19-.015.049-.02.093-.034.132-.044l.352 3.076a2.903 2.903 0 01-.894.293 5.444 5.444 0 01-.923.074 4.434 4.434 0 01-1.567-.264 3.457 3.457 0 01-1.245-.806c-.352-.37-.64-.835-.864-1.391-.225-.567-.381-1.236-.469-2.007v-8.291l.556-3.399zm-181.01 29.522V69h-4.395l-8.569-14.297V69h-4.395V47.672h4.395l8.584 14.311V47.672h4.38zm2.885 13.564v-.307c0-1.162.166-2.232.498-3.208.333-.987.816-1.841 1.451-2.564a6.495 6.495 0 012.343-1.684c.928-.41 1.993-.616 3.194-.616 1.201 0 2.27.206 3.208.616.937.4 1.723.962 2.358 1.684a7.292 7.292 0 011.465 2.564c.332.976.498 2.046.498 3.208v.307c0 1.153-.166 2.222-.498 3.208a7.468 7.468 0 01-1.465 2.564 6.499 6.499 0 01-2.344 1.684c-.927.4-1.992.601-3.193.601s-2.27-.2-3.208-.6a6.63 6.63 0 01-2.358-1.685 7.62 7.62 0 01-1.451-2.564c-.332-.986-.498-2.055-.498-3.208zm4.219-.307v.307c0 .664.059 1.285.176 1.86.117.577.303 1.085.557 1.524.263.43.605.767 1.025 1.01.42.245.933.367 1.538.367.586 0 1.089-.122 1.509-.366.42-.244.757-.581 1.011-1.01.254-.44.439-.948.556-1.524a8.634 8.634 0 00.191-1.86v-.308c0-.645-.064-1.25-.191-1.817a4.781 4.781 0 00-.571-1.523c-.254-.45-.591-.8-1.011-1.055-.42-.254-.928-.38-1.523-.38-.596 0-1.104.126-1.524.38a2.99 2.99 0 00-1.01 1.055c-.254.44-.44.947-.557 1.523a8.97 8.97 0 00-.176 1.817zm12.7.307v-.307c0-1.114.162-2.144.484-3.091a7.2 7.2 0 011.45-2.476 6.532 6.532 0 012.344-1.626c.927-.39 1.987-.586 3.178-.586.215.098.425.293.63.586.215.293.489.6.821.923.332.313.781.552 1.347.718.772.303 1.499.762 2.183 1.377a7.228 7.228 0 011.655 2.139c.43.81.645 1.684.645 2.622v.307a8.68 8.68 0 01-.484 2.93 6.766 6.766 0 01-1.406 2.373 6.488 6.488 0 01-2.27 1.611c-.889.381-1.919.572-3.091.572-1.201 0-2.266-.2-3.194-.601a6.806 6.806 0 01-2.358-1.7 7.6 7.6 0 01-1.45-2.563c-.322-.986-.484-2.055-.484-3.208zm4.219-.307v.307c0 .664.059 1.285.176 1.86.117.577.303 1.085.557 1.524.253.43.59.767 1.01 1.01.42.245.928.367 1.524.367.556 0 1.025-.122 1.406-.366a2.67 2.67 0 00.937-1.01c.235-.44.406-.948.513-1.524.108-.577.161-1.197.161-1.86v-.308c0-.606-.053-1.177-.161-1.714a4.677 4.677 0 00-.513-1.421 2.584 2.584 0 00-.937-.981c-.391-.235-.864-.352-1.421-.352-.586 0-1.089.117-1.509.352-.42.234-.757.561-1.01.98-.254.411-.44.885-.557 1.422a8.04 8.04 0 00-.176 1.714zm11.66-7.779v3.31h-8.408v-3.31h8.408zm1.304 8.086v-.307c0-1.162.166-2.232.498-3.208.332-.987.815-1.841 1.45-2.564a6.498 6.498 0 012.344-1.684c.928-.41 1.992-.616 3.193-.616 1.202 0 2.271.206 3.208.616a6.47 6.47 0 012.359 1.684 7.307 7.307 0 011.465 2.564c.332.976.498 2.046.498 3.208v.307c0 1.153-.166 2.222-.498 3.208a7.484 7.484 0 01-1.465 2.564 6.499 6.499 0 01-2.344 1.684c-.928.4-1.992.601-3.193.601-1.202 0-2.271-.2-3.208-.6a6.643 6.643 0 01-2.359-1.685 7.6 7.6 0 01-1.45-2.564c-.332-.986-.498-2.055-.498-3.208zm4.219-.307v.307c0 .664.058 1.285.176 1.86.117.577.302 1.085.556 1.524.264.43.606.767 1.026 1.01.419.245.932.367 1.538.367.586 0 1.089-.122 1.508-.366.42-.244.757-.581 1.011-1.01.254-.44.44-.948.557-1.524.127-.577.19-1.197.19-1.86v-.308a8.29 8.29 0 00-.19-1.817 4.805 4.805 0 00-.571-1.523c-.254-.45-.591-.8-1.011-1.055-.42-.254-.928-.38-1.524-.38-.595 0-1.103.126-1.523.38a3 3 0 00-1.011 1.055c-.254.44-.439.947-.556 1.523a8.899 8.899 0 00-.176 1.817zm17.871-7.779V69h-4.219V53.15h4.219zm10.781 0l-7.251 9.917h-4.277l-.498-3.896h2.578l4.101-6.02h5.347zM185.965 69l-4.365-6.694 3.676-2.036L191.37 69h-5.405zm6.943-7.764v-.307c0-1.162.166-2.232.498-3.208a7.434 7.434 0 011.45-2.564 6.498 6.498 0 012.344-1.684c.928-.41 1.992-.616 3.194-.616 1.201 0 2.27.206 3.208.616.937.4 1.723.962 2.358 1.684a7.307 7.307 0 011.465 2.564c.332.976.498 2.046.498 3.208v.307c0 1.153-.166 2.222-.498 3.208a7.484 7.484 0 01-1.465 2.564 6.499 6.499 0 01-2.344 1.684c-.928.4-1.992.601-3.193.601s-2.271-.2-3.208-.6a6.643 6.643 0 01-2.359-1.685 7.617 7.617 0 01-1.45-2.564c-.332-.986-.498-2.055-.498-3.208zm4.219-.307v.307c0 .664.059 1.285.176 1.86.117.577.302 1.085.556 1.524.264.43.606.767 1.026 1.01.42.245.932.367 1.538.367.586 0 1.089-.122 1.509-.366.42-.244.756-.581 1.01-1.01.254-.44.44-.948.557-1.524.127-.577.19-1.197.19-1.86v-.308a8.29 8.29 0 00-.19-1.817 4.805 4.805 0 00-.571-1.523c-.254-.45-.591-.8-1.011-1.055-.42-.254-.928-.38-1.523-.38-.596 0-1.104.126-1.524.38a3 3 0 00-1.011 1.055c-.254.44-.439.947-.556 1.523a8.97 8.97 0 00-.176 1.817zm23.701-7.779h4.234V69h-3.941l-.293-3.662V53.15zm.527 8.482l1.714-.03c0 1.114-.112 2.14-.337 3.077-.214.937-.546 1.753-.996 2.446a4.697 4.697 0 01-1.67 1.611c-.673.381-1.46.572-2.358.572a5.243 5.243 0 01-1.919-.337 3.953 3.953 0 01-1.494-1.055c-.42-.488-.767-1.108-1.04-1.86l-.381-3.809h2.271c0 .762.063 1.387.19 1.875s.308.87.542 1.143c.234.263.513.449.835.556.332.098.698.147 1.099.147.673 0 1.24-.108 1.699-.323.459-.214.82-.517 1.084-.908.273-.39.468-.85.586-1.377a7.984 7.984 0 00.175-1.728zm-10.429-8.482h4.219v21.944h-4.219V53.15zm24.184 7.237h3.604v1.89h-2.71c-.596 0-1.118.063-1.567.19-.45.127-.796.337-1.041.63-.234.283-.351.659-.351 1.128 0 .254.059.503.176.747.117.234.298.444.542.63.254.175.561.322.923.439.371.107.795.161 1.274.161.654 0 1.201-.088 1.641-.263.439-.176.771-.406.996-.689.224-.293.337-.606.337-.938h4.218c0 .86-.2 1.607-.6 2.242a4.964 4.964 0 01-1.597 1.552c-.664.4-1.411.699-2.241.894-.83.195-1.67.293-2.52.293-1.035 0-2.002-.108-2.9-.322-.898-.215-1.685-.528-2.358-.938-.665-.41-1.182-.908-1.553-1.494-.371-.596-.557-1.27-.557-2.021 0-.665.142-1.25.425-1.758a3.639 3.639 0 011.23-1.304c.547-.352 1.211-.615 1.993-.791.781-.185 1.66-.278 2.636-.278zm3.604 1.054h-3.604c-.888 0-1.699-.102-2.431-.307-.733-.205-1.367-.489-1.905-.85-.537-.37-.952-.796-1.245-1.274a2.946 2.946 0 01-.425-1.524c0-.752.171-1.41.513-1.977.342-.576.825-1.06 1.45-1.45.635-.391 1.387-.684 2.256-.88a12.627 12.627 0 012.871-.307 9.67 9.67 0 012.593.337 6.885 6.885 0 012.139.952c.615.41 1.098.913 1.45 1.509.352.586.527 1.26.527 2.021h-4.218c0-.36-.118-.669-.352-.922-.234-.264-.557-.464-.967-.601a4.385 4.385 0 00-1.391-.205c-.625 0-1.133.093-1.524.278-.39.176-.679.406-.864.689a1.571 1.571 0 00-.264.864c0 .264.059.503.176.718.117.205.283.386.498.542.225.146.503.263.835.351.342.078.732.117 1.172.117h2.71v1.92zm7.412-8.29h4.233v10.956c0 .46.059.811.176 1.055.117.234.298.4.542.498.254.088.567.132.938.132.263 0 .498-.01.703-.03.205-.019.386-.043.542-.073v3.091a7.95 7.95 0 01-1.172.279c-.42.078-.884.117-1.392.117-.927 0-1.733-.157-2.417-.469a3.422 3.422 0 01-1.596-1.494c-.371-.684-.557-1.582-.557-2.695V53.15zm.791-2.227l1.099-5.025h3.838l-2.417 5.025h-2.52zm8.394 10.561v-.307c0-1.211.131-2.325.395-3.34.273-1.016.669-1.895 1.187-2.637a5.577 5.577 0 011.948-1.728c.771-.41 1.66-.616 2.666-.616.693 0 1.313.132 1.86.396.557.254 1.04.625 1.45 1.113.42.489.777 1.07 1.07 1.743.293.664.537 1.407.732 2.227.195.81.347 1.68.454 2.607v.645a18.53 18.53 0 01-.6 3.061c-.274.938-.63 1.758-1.07 2.461-.439.694-.986 1.23-1.64 1.612-.645.38-1.407.571-2.285.571-.997 0-1.88-.19-2.652-.571a5.48 5.48 0 01-1.933-1.612c-.528-.703-.923-1.528-1.187-2.475-.264-.957-.395-2.007-.395-3.15zm4.233-.307v.307c0 .655.049 1.255.146 1.802a4.73 4.73 0 00.513 1.421c.235.41.542.728.923.952.381.225.85.337 1.406.337.547 0 1.011-.103 1.392-.308.39-.205.713-.488.967-.85.254-.37.454-.805.6-1.303.147-.508.254-1.07.322-1.684v-1.084a11.007 11.007 0 00-.307-1.846 4.75 4.75 0 00-.601-1.465 2.73 2.73 0 00-.967-.952c-.38-.235-.839-.352-1.376-.352-.547 0-1.016.132-1.407.396a2.999 2.999 0 00-.937 1.084 5.647 5.647 0 00-.513 1.611c-.107.606-.161 1.25-.161 1.934zm6.108-8.028h3.662v10.782c0 .38.025.698.074.952.049.254.117.459.205.615a.92.92 0 00.337.337c.136.058.288.088.454.088.078 0 .141-.005.19-.015.049-.02.093-.034.132-.044l.352 3.076a2.903 2.903 0 01-.894.293 5.444 5.444 0 01-.923.074 4.434 4.434 0 01-1.567-.264 3.457 3.457 0 01-1.245-.806c-.352-.37-.64-.835-.865-1.391-.224-.567-.38-1.236-.468-2.007v-8.291l.556-3.399z"/>
</svg>
